<?xml version="1.0" encoding="utf-8"?>
<svg viewBox="0 0 286.196 58.061" xmlns="http://www.w3.org/2000/svg" xmlns:bx="https://boxy-svg.com">
  <defs>
    <filter id="black-and-white-filter-0" color-interpolation-filters="sRGB" x="-500%" y="-500%" width="1000%" height="1000%" bx:preset="black-and-white 1 0">
      <feColorMatrix type="saturate" values="0"/>
      <feComponentTransfer>
        <feFuncR type="discrete" tableValues="0 0 0 0 0 0 0 0 0 0 0 0 0 0 0 0 0 0 0 0 0 0 0 0 0 0 0 0 0 0 0 0 0 0 0 0 0 0 0 0 0 0 0 0 0 0 0 0 0 0 0 0 0 0 0 0 0 0 0 0 0 0 0 0 0 0 0 0 0 0 0 0 0 0 0 0 0 0 0 0 0 0 0 0 0 0 0 0 0 0 0 0 0 0 0 0 0 0 0 0 0 0 0 0 0 0 0 0 0 0 0 0 0 0 0 0 0 0 0 0 0 0 0 0 0 1 1 1 1 1 1 1 1 1 1 1 1 1 1 1 1 1 1 1 1 1 1 1 1 1 1 1 1 1 1 1 1 1 1 1 1 1 1 1 1 1 1 1 1 1 1 1 1 1 1 1 1 1 1 1 1 1 1 1 1 1 1 1 1 1 1 1 1 1 1 1 1 1 1 1 1 1 1 1 1 1 1 1 1 1 1 1 1 1 1 1 1 1 1 1 1 1 1 1 1 1 1 1 1 1 1 1 1 1 1 1 1 1 1 1 1 1 1 1 1 1 1 1 1 1 1 1 1 1 1 "/>
        <feFuncG type="discrete" tableValues="0 0 0 0 0 0 0 0 0 0 0 0 0 0 0 0 0 0 0 0 0 0 0 0 0 0 0 0 0 0 0 0 0 0 0 0 0 0 0 0 0 0 0 0 0 0 0 0 0 0 0 0 0 0 0 0 0 0 0 0 0 0 0 0 0 0 0 0 0 0 0 0 0 0 0 0 0 0 0 0 0 0 0 0 0 0 0 0 0 0 0 0 0 0 0 0 0 0 0 0 0 0 0 0 0 0 0 0 0 0 0 0 0 0 0 0 0 0 0 0 0 0 0 0 0 1 1 1 1 1 1 1 1 1 1 1 1 1 1 1 1 1 1 1 1 1 1 1 1 1 1 1 1 1 1 1 1 1 1 1 1 1 1 1 1 1 1 1 1 1 1 1 1 1 1 1 1 1 1 1 1 1 1 1 1 1 1 1 1 1 1 1 1 1 1 1 1 1 1 1 1 1 1 1 1 1 1 1 1 1 1 1 1 1 1 1 1 1 1 1 1 1 1 1 1 1 1 1 1 1 1 1 1 1 1 1 1 1 1 1 1 1 1 1 1 1 1 1 1 1 1 1 1 1 1 "/>
        <feFuncB type="discrete" tableValues="0 0 0 0 0 0 0 0 0 0 0 0 0 0 0 0 0 0 0 0 0 0 0 0 0 0 0 0 0 0 0 0 0 0 0 0 0 0 0 0 0 0 0 0 0 0 0 0 0 0 0 0 0 0 0 0 0 0 0 0 0 0 0 0 0 0 0 0 0 0 0 0 0 0 0 0 0 0 0 0 0 0 0 0 0 0 0 0 0 0 0 0 0 0 0 0 0 0 0 0 0 0 0 0 0 0 0 0 0 0 0 0 0 0 0 0 0 0 0 0 0 0 0 0 0 1 1 1 1 1 1 1 1 1 1 1 1 1 1 1 1 1 1 1 1 1 1 1 1 1 1 1 1 1 1 1 1 1 1 1 1 1 1 1 1 1 1 1 1 1 1 1 1 1 1 1 1 1 1 1 1 1 1 1 1 1 1 1 1 1 1 1 1 1 1 1 1 1 1 1 1 1 1 1 1 1 1 1 1 1 1 1 1 1 1 1 1 1 1 1 1 1 1 1 1 1 1 1 1 1 1 1 1 1 1 1 1 1 1 1 1 1 1 1 1 1 1 1 1 1 1 1 1 1 1 "/>
      </feComponentTransfer>
    </filter>
  </defs>
  <path d="M91.1,38.856C86.762,31.638,77.04,35.768,79.118,44.1c2.787,11.179,16.4,13.857,21.416,23.824,2.754,5.473,1.029,10.945-3.186,13.347-4.323,2.463-11.629,3.438-16.117.146-2.25-1.65-2.063-2.895-3.25.209-.382,1-1.017,2.1-2.254,1.044-1.948-1.655-1.908-6.907,1.374-9.142,2.092-1.116,3.511-.527,5.448,1.389,4.7,3.863,10.684,2.715,12.233-.483,1-2.057-.008-5.274-2.006-7.519-2.891-3.248-7.448-6.047-11.2-10.429-4.948-5.779-8.721-12.247-6.254-18.619,2.146-5.545,8.312-10.651,15.59-6.968,4.3,2.176,8.5,7.146,6.091,12.078-1.659,3.4-6.794,4.494-9.167.974-1.431-2.123,4.468-3.132,3.267-5.095Z" transform="matrix(1, 0, 0, 1, -28.139, -27.968)" fill="#fff" fill-rule="evenodd"/>
  <path d="M 98.708 29.994 C 98.41 28.996 97.481 28.321 96.44 28.347 C 93.818 28.554 93.307 28.447 90.855 28.597 C 88.403 28.747 86.306 28.848 84.56 28.912 C 84.901 25.912 85.243 22.912 85.585 19.912 C 86.533 11.192 86.575 5.825 85.712 3.812 C 85.06 2.286 84.016 1.689 82.579 2.023 C 80.342 2.437 79.81 6.297 79.564 13.553 C 79.548 18.939 79.81 24.322 80.349 29.681 C 79.814 29.812 78.184 30.281 77.112 30.603 C 76.225 30.845 75.366 31.183 74.551 31.61 C 74.155 31.844 73.939 32.295 74.004 32.751 C 74.033 33.448 74.201 34.133 74.496 34.766 C 75.359 36.782 76.695 39.844 78.506 43.953 C 80.317 48.061 81.536 50.852 82.163 52.324 C 83.259 54.882 84.68 56.13 86.426 56.066 C 87.832 56.014 88.671 55.817 88.943 55.476 C 89.215 55.134 89.072 54.31 88.514 53.002 C 87.028 49.59 85.989 46 85.422 42.323 C 85.108 39.539 84.958 36.739 84.974 33.938 C 90.441 32.681 94.192 33.017 97.333 32.183 L 97.496 32.125 C 98.708 31.363 98.038 31.757 98.458 31.3 C 98.853 30.986 98.959 30.431 98.708 29.994 Z M 82.222 47.029 L 82.064 47.229 L 81.813 47.24 C 81.813 47.24 81.697 47.011 81.368 46.331 C 81.039 45.651 79.815 41.28 79.748 41.205 C 79.681 41.13 78.6 37.09 78.475 36.665 C 78.396 36.437 78.383 36.192 78.439 35.958 C 78.536 35.741 78.677 35.547 78.853 35.387 C 79.273 35.138 79.723 34.944 80.192 34.809 L 80.403 34.798 L 80.588 35.143 L 80.715 36.004 L 81.032 38.151 L 82.002 44.323 L 82.329 46.668 Z" fill="#fff"/>
  <path d="M 107.484 33.976 C 105.419 38.615 106.232 57.223 115.827 48.407 C 117.919 46.484 118.185 40.307 117.402 35.023 C 117.22 33.804 116.191 30.094 115.845 28.976 C 115.406 27.551 116.591 25.56 118.394 24.952 C 119.914 24.523 121.513 25.306 122.107 26.77 C 123.107 29.153 122.449 33.059 122.341 34.658 C 122.023 39.427 121.241 45.296 122.941 48.381 C 123.665 49.699 124.667 49.832 124.702 50.814 C 124.829 54.325 120.652 56.574 119.064 54.395 C 118.64 53.814 118.991 52.854 118.345 52.423 C 110.456 59.506 101.767 53.952 101.9 43.807 C 101.929 41.589 101.62 37.97 102.423 34.831 C 103.048 32.388 103.445 30.061 104.723 28.739 C 106.395 27.531 107.258 28.257 107.791 28.655 C 108.963 29.535 108.084 32.309 107.485 33.976 Z" fill="#fff" fill-rule="evenodd"/>
  <path d="M 200.601 48.71 C 202.007 43.926 203.654 36.117 202.601 33.227 C 201.025 28.897 195.021 27.309 192.058 31.74 C 190.24 34.458 190.191 44.187 192.505 49.88 C 193.058 51.241 192.031 53.139 190.277 53.718 C 183.677 55.903 188.806 37.609 184.953 31.764 C 184.123 30.507 183.111 30.382 182.998 29.443 C 182.591 26.093 186.589 23.943 188.349 26.026 C 188.818 26.582 188.542 27.496 189.22 27.909 C 196.542 21.15 207.439 26.23 208.109 35.909 C 208.168 40.955 207.295 45.969 205.533 50.699 C 205.121 51.794 204.526 52.811 203.773 53.707 C 202.931 54.528 201.598 54.562 200.714 53.785 C 199.474 52.946 200.132 50.301 200.599 48.709 Z" fill="#fff" fill-rule="evenodd"/>
  <path d="M41.355,73.31c-6.813-2.228-11.674-8.847-12.866-15.783C25.2,38.382,45.575,21.108,65.924,30.7c.241,4.3-1.756,10.419-7.236,12.258,27.2,17.172,3.945,52.349-24.56,40.782-5.2-2.652-2.424-7.5,3.136-4.692,6.209,2.141,14.277,2.141,19.361-.666A23,23,0,0,0,64.9,71.009a23.913,23.913,0,0,0,1.963-3.63c.431-1.015,1.82-5.2.742-5.657-.27-.113-.412.207-.486.507a17.755,17.755,0,0,1-3.9,7.356,19.676,19.676,0,0,1-8.4,5.749c-4.065,1.481-8.776,1.668-15.254.251.428-.463,1.286-1.751,1.784-2.275ZM60.133,32.42a13.311,13.311,0,0,1,.184,1.895,9.005,9.005,0,0,1-3.006,7.468c-.457.458-.977.934-1.555,1.428,7.682,4.776,11.694,15.221,7.235,22.521-6.018,9.836-17.944,7.6-24.458.865-6.821-7.05-5.917-16.172-1.018-22.933A28.414,28.414,0,0,1,60.133,32.42Z" transform="matrix(1, 0, 0, 1, -28.139, -27.968)" fill="#96cb4c" fill-rule="evenodd"/>
  <path d="M36.981,54.013c1.462-14.6,18.258-17.49,24.5,1.967,5.037,20-26.819,15.647-24.5-1.967Zm13.7,9.6c13.264.484,6.908-13.081-1.8-16.079-8.631-2.971-13.43,16.078,1.8,16.079Z" transform="matrix(1, 0, 0, 1, -28.139, -27.968)" fill="#fff" fill-rule="evenodd"/>
  <path d="M 259.716 30.537 C 259.418 29.539 258.489 28.864 257.448 28.89 C 254.826 29.097 254.315 28.99 251.863 29.14 C 249.411 29.29 247.314 29.391 245.568 29.455 C 245.909 26.455 246.251 23.455 246.593 20.455 C 247.541 11.735 247.583 6.368 246.72 4.355 C 246.068 2.829 245.024 2.232 243.587 2.566 C 241.35 2.98 240.818 6.84 240.572 14.096 C 240.556 19.482 240.818 24.865 241.357 30.224 C 240.822 30.355 239.192 30.824 238.12 31.146 C 237.233 31.388 236.374 31.726 235.559 32.153 C 235.163 32.387 234.947 32.838 235.012 33.294 C 235.041 33.991 235.209 34.676 235.504 35.309 C 236.367 37.325 237.703 40.387 239.514 44.496 C 241.325 48.604 242.544 51.395 243.171 52.867 C 244.267 55.425 245.688 56.673 247.434 56.609 C 248.84 56.557 249.679 56.36 249.951 56.019 C 250.223 55.677 250.08 54.853 249.522 53.545 C 248.036 50.133 246.997 46.543 246.43 42.866 C 246.116 40.082 245.966 37.282 245.982 34.481 C 251.449 33.224 255.2 33.56 258.341 32.726 L 258.504 32.668 C 259.716 31.906 259.046 32.3 259.466 31.843 C 259.861 31.529 259.967 30.974 259.716 30.537 Z M 243.23 47.572 L 243.072 47.772 L 242.821 47.783 C 242.821 47.783 242.705 47.554 242.376 46.874 C 242.047 46.194 240.823 41.823 240.756 41.748 C 240.689 41.673 239.608 37.633 239.483 37.208 C 239.404 36.98 239.391 36.735 239.447 36.501 C 239.544 36.284 239.685 36.09 239.861 35.93 C 240.281 35.681 240.731 35.487 241.2 35.352 L 241.411 35.341 L 241.596 35.686 L 241.723 36.547 L 242.04 38.694 L 243.01 44.866 L 243.337 47.211 Z" fill="#fff"/>
  <path d="M 151.135 30.448 C 150.837 29.45 149.908 28.775 148.867 28.801 C 146.245 29.008 145.734 28.901 143.282 29.051 C 140.83 29.201 138.733 29.302 136.987 29.366 C 137.328 26.366 137.67 23.366 138.012 20.366 C 138.96 11.646 142.639 16.635 142.796 14.421 C 142.913 12.766 146.723 7.856 145.286 8.19 C 143.049 8.604 132.207 7.388 131.961 14.644 C 131.945 20.03 132.776 30.135 132.776 30.135 C 132.241 30.266 130.611 30.735 129.539 31.057 C 128.652 31.299 127.793 31.637 126.978 32.064 C 126.582 32.298 126.366 32.749 126.431 33.205 C 126.46 33.902 126.719 33.334 127.049 33.949 C 140.947 59.854 130.624 42.946 132.435 47.055 C 134.246 51.163 133.963 51.306 134.59 52.778 C 135.686 55.336 137.107 56.584 138.853 56.52 C 140.259 56.468 141.098 56.271 141.37 55.93 C 141.642 55.588 141.499 54.764 140.941 53.456 C 139.455 50.044 138.416 46.454 137.849 42.777 C 137.535 39.993 137.385 37.193 137.401 34.392 C 142.868 33.135 146.619 33.471 149.76 32.637 L 149.923 32.579 C 151.135 31.817 150.465 32.211 150.885 31.754 C 151.28 31.44 151.386 30.885 151.135 30.448 Z M 134.649 47.483 L 134.491 47.683 L 134.24 47.694 C 134.24 47.694 134.124 47.465 133.795 46.785 C 133.466 46.105 125.828 31.567 126.329 33.146 C 126.83 34.725 131.027 37.544 130.902 37.119 C 130.823 36.891 130.81 36.646 130.866 36.412 C 130.963 36.195 131.104 36.001 131.28 35.841 C 131.7 35.592 132.15 35.398 132.619 35.263 L 132.83 35.252 L 133.015 35.597 L 133.142 36.458 L 133.459 38.605 L 134.429 44.777 L 134.756 47.122 L 134.649 47.483 Z" style="fill: rgb(150, 203, 76);"/>
  <path d="M 178.793 29.865 C 178.495 28.867 177.566 28.192 176.525 28.218 C 173.903 28.425 173.392 28.318 170.94 28.468 C 168.488 28.618 166.391 28.719 164.645 28.783 C 164.986 25.783 165.328 22.783 165.67 19.783 C 166.618 11.063 170.297 16.052 170.454 13.838 C 170.571 12.183 174.381 7.273 172.944 7.607 C 170.707 8.021 159.865 6.805 159.619 14.061 C 159.603 19.447 160.434 29.552 160.434 29.552 C 159.899 29.683 158.269 30.152 157.197 30.474 C 156.31 30.716 155.451 31.054 154.636 31.481 C 154.24 31.715 154.024 32.166 154.089 32.622 C 154.118 33.319 154.377 32.751 154.707 33.366 C 168.605 59.271 158.282 42.363 160.093 46.472 C 161.904 50.58 161.621 50.723 162.248 52.195 C 163.344 54.753 164.765 56.001 166.511 55.937 C 167.917 55.885 168.756 55.688 169.028 55.347 C 169.3 55.005 169.157 54.181 168.599 52.873 C 167.113 49.461 166.074 45.871 165.507 42.194 C 165.193 39.41 165.043 36.61 165.059 33.809 C 170.526 32.552 174.277 32.888 177.418 32.054 L 177.581 31.996 C 178.793 31.234 178.123 31.628 178.543 31.171 C 178.938 30.857 179.044 30.302 178.793 29.865 Z M 162.307 46.9 L 162.149 47.1 L 161.898 47.111 C 161.898 47.111 161.782 46.882 161.453 46.202 C 161.124 45.522 153.486 30.984 153.987 32.563 C 154.488 34.142 158.685 36.961 158.56 36.536 C 158.481 36.308 158.468 36.063 158.524 35.829 C 158.621 35.612 158.762 35.418 158.938 35.258 C 159.358 35.009 159.808 34.815 160.277 34.68 L 160.488 34.669 L 160.673 35.014 L 160.8 35.875 L 161.117 38.022 L 162.087 44.194 L 162.414 46.539 L 162.307 46.9 Z" style="fill: rgb(150, 203, 76); paint-order: fill;"/>
  <path stroke="rgb(255,0,0)" stroke-width="0" d="M 233.77 21.105 C 234.051 20.504 238.691 22.296 238.509 22.875 C 236.306 29.846 234.735 24.444 234.558 24.473 C 232.789 24.765 229.944 29.945 227.149 32.989 C 227.099 33.48 223.177 38.383 222.171 40.316 C 221.142 42.288 220.218 44.076 219.404 45.633 C 217.271 49.713 215.896 52.19 215.422 52.157 C 214.767 52.11 214.783 52.081 214.56 51.932 C 214.369 51.8 214.313 51.614 214.1 50.996 C 213.898 50.408 215.651 47.035 217.679 43.465 C 218.968 41.197 220.371 38.847 221.451 37.085 C 222.403 35.532 223.108 34.435 223.268 34.248 C 223.866 30.053 222.067 24.242 221.189 23.713 C 220.259 23.153 220.437 19.878 219.386 20.658 C 209.748 27.814 218.439 13.674 221.41 16.8 C 221.997 17.418 223.187 20.276 223.585 23.182 C 223.75 24.394 224.822 27.888 225.873 28.656 C 229.668 31.432 233.182 22.358 233.77 21.105 Z" style="stroke: rgb(129, 151, 57); stroke-width: 2px; fill-rule: nonzero; paint-order: stroke markers; fill: rgb(255, 255, 255); filter: url(#black-and-white-filter-0);" transform="matrix(0.967174, -0.254116, 0.254116, 0.967174, -1.274763, 58.630493)"/>
  <g id="layer1" transform="matrix(0.956013, -0.293331, 0.293331, 0.956013, 19.264584, -840.391846)">
    <path id="path3788" style="font: 85px / 125% &quot;Doulos SIL&quot;; letter-spacing: 0px; word-spacing: 0px; fill-opacity: 1; stroke: none; fill: rgb(255, 255, 255);" d="M -12.322 932.368 L -13.812 931.321 L -13.812 927.776 C -14.905 928.922 -16.015 929.799 -17.143 930.408 C -18.271 931.017 -19.551 931.321 -20.984 931.321 C -22.345 931.321 -23.639 931.017 -24.865 930.408 C -26.092 929.799 -27.166 928.958 -28.088 927.884 C -29.011 926.809 -29.745 925.533 -30.291 924.056 C -30.837 922.579 -31.11 920.972 -31.11 919.235 C -31.11 918.178 -30.994 917.095 -30.761 915.985 C -30.528 914.875 -30.179 913.8 -29.713 912.762 C -29.248 911.723 -28.675 910.742 -27.995 909.82 C -27.314 908.898 -26.535 908.092 -25.658 907.403 C -24.78 906.714 -23.795 906.168 -22.703 905.765 C -21.61 905.362 -20.429 905.161 -19.158 905.16 C -18.083 905.161 -17.103 905.326 -16.216 905.657 C -15.33 905.988 -14.529 906.513 -13.812 907.228 L -14.969 903.976 C -14.264 900.901 -8.881 903.386 -9.3 905.214 L -9.3 920.766 C -9.3 922.091 -9.291 923.152 -9.273 923.949 C -9.256 924.746 -9.219 925.377 -9.166 925.842 C -9.112 926.308 -9.032 926.648 -8.924 926.863 C -8.817 927.078 -8.665 927.256 -8.467 927.4 C -8.145 927.669 -7.747 927.785 -7.272 927.749 C -6.798 927.713 -6.202 927.561 -5.486 927.293 L -5.164 928.232 C -4.683 929.35 -11.841 933.486 -12.322 932.368 Z M -13.812 913.138 C -13.813 912.457 -13.942 911.75 -14.202 911.016 C -14.462 910.282 -14.833 909.605 -15.317 908.988 C -15.8 908.37 -16.391 907.855 -17.089 907.443 C -17.788 907.032 -18.584 906.817 -19.48 906.799 C -20.393 906.763 -21.253 906.982 -22.058 907.457 C -22.864 907.931 -23.567 908.617 -24.167 909.512 C -24.767 910.407 -27.837 912.953 -27.205 917.296 C -26.573 921.639 -26.089 910.704 -26.109 923.703 C -26.117 928.592 -33.136 924.344 -29.659 917.854 C -26.182 911.364 -22.908 925.225 -23.36 927.265 C -23.812 929.305 -21.576 925.976 -21.199 927.629 C -20.822 929.282 -19.426 928.269 -18.567 928.286 C -17.707 928.286 -16.893 928.085 -16.123 927.682 C -15.352 927.279 -14.582 926.675 -13.812 925.869 L -13.812 913.138 Z"/>
  </g>
</svg>